<svg width="21" height="20" viewBox="0 0 21 20" fill="none" xmlns="http://www.w3.org/2000/svg">
<g id="ico_social_facebook">
<path id="Vector" d="M8.64539 10.0635V17.7991C8.64539 17.9097 8.73461 18.0001 8.84442 18.0001H11.6782C11.788 18.0001 11.8773 17.9097 11.8773 17.7991V9.93752H13.9315C13.9814 9.93752 14.0295 9.91846 14.0662 9.88419C14.1029 9.84992 14.1257 9.80292 14.1298 9.75246L14.3275 7.38378C14.3297 7.35597 14.3263 7.32799 14.3173 7.3016C14.3084 7.27521 14.2942 7.25099 14.2755 7.23046C14.2569 7.20993 14.2343 7.19354 14.2091 7.18234C14.1839 7.17113 14.1566 7.16534 14.1291 7.16534H11.8773V5.48534C11.8773 5.0909 12.1923 4.7716 12.5807 4.7716H14.1641C14.2168 4.7716 14.2673 4.75044 14.3046 4.71276C14.3419 4.67508 14.3629 4.62394 14.3631 4.57056V2.20186C14.3631 2.14836 14.3421 2.09704 14.3049 2.05921C14.2675 2.02138 14.2169 2.00012 14.1641 2.00012H11.4881C10.7341 2.00031 10.0111 2.30404 9.47796 2.84451C8.94487 3.38499 8.64539 4.11796 8.64539 4.88221V7.16534H7.22813C7.17546 7.16552 7.12502 7.18686 7.08784 7.22468C7.05066 7.26249 7.02978 7.3137 7.02979 7.36708V9.73579C7.02979 9.84706 7.11832 9.93752 7.22813 9.93752H8.64539V10.0635Z" fill="white"/>
</g>
</svg>
