<svg width="126" height="36" viewBox="0 0 126 36" fill="none" xmlns="http://www.w3.org/2000/svg">
<g id="googleplay">
<path id="path14" d="M120.45 36.0001H5.2244C2.69058 36.0001 0.615356 33.974 0.615356 31.5001V4.50012C0.615356 2.02625 2.69058 0.000123973 5.2244 0.000123973H120.45C122.984 0.000123973 125.059 2.02625 125.059 4.50012V31.5001C125.059 33.974 122.984 36.0001 120.45 36.0001Z" fill="black"/>
<path id="path16" d="M120.45 0.721247C122.584 0.721247 124.321 2.41662 124.321 4.50012V31.5001C124.321 33.5836 122.584 35.279 120.45 35.279H5.2244C3.09041 35.279 1.35395 33.5836 1.35395 31.5001V4.50012C1.35395 2.41662 3.09041 0.721247 5.2244 0.721247H120.45ZM120.45 0.000123973H5.2244C2.69058 0.000123973 0.615356 2.02625 0.615356 4.50012V31.5001C0.615356 33.974 2.69058 36.0001 5.2244 36.0001H120.45C122.984 36.0001 125.059 33.974 125.059 31.5001V4.50012C125.059 2.02625 122.984 0.000123973 120.45 0.000123973Z" fill="#A6A6A6"/>
<g id="g18">
<path id="path20" d="M44.325 9.21959C44.325 9.97109 44.0946 10.573 43.6406 11.0218C43.1186 11.554 42.4388 11.8217 41.6057 11.8217C40.8095 11.8217 40.1296 11.5495 39.5719 11.0128C39.0131 10.4683 38.7343 9.80009 38.7343 9.00021C38.7343 8.20034 39.0131 7.53209 39.5719 6.99209C40.1296 6.45096 40.8095 6.17871 41.6057 6.17871C42.0021 6.17871 42.38 6.25859 42.7407 6.40709C43.1002 6.55671 43.3928 6.75921 43.6049 7.00896L43.1232 7.48371C42.7533 7.05734 42.2498 6.84696 41.6057 6.84696C41.0249 6.84696 40.5214 7.04496 40.0939 7.44434C39.671 7.84484 39.459 8.36346 39.459 9.00021C39.459 9.63696 39.671 10.1601 40.0939 10.5606C40.5214 10.9555 41.0249 11.158 41.6057 11.158C42.2221 11.158 42.7407 10.9555 43.1497 10.5561C43.4193 10.2917 43.5726 9.92721 43.6129 9.46146H41.6057V8.81121H44.2835C44.3158 8.95184 44.325 9.08796 44.325 9.21959Z" fill="white" stroke="white" stroke-width="0.16" stroke-miterlimit="10"/>
</g>
<g id="g22">
<path id="path24" d="M48.5742 6.96499H46.0588V8.67499H48.3264V9.32524H46.0588V11.0352H48.5742V11.6979H45.3467V6.30237H48.5742V6.96499Z" fill="white" stroke="white" stroke-width="0.16" stroke-miterlimit="10"/>
</g>
<g id="g26">
<path id="path28" d="M51.5722 11.6979H50.8601V6.96499H49.3173V6.30237H53.1163V6.96499H51.5722V11.6979Z" fill="white" stroke="white" stroke-width="0.16" stroke-miterlimit="10"/>
</g>
<g id="g30">
<path id="path32" d="M55.8651 11.6979V6.30237H56.5761V11.6979H55.8651Z" fill="white" stroke="white" stroke-width="0.16" stroke-miterlimit="10"/>
</g>
<g id="g34">
<path id="path36" d="M59.7275 11.6979H59.0212V6.96499H57.4725V6.30237H61.2761V6.96499H59.7275V11.6979Z" fill="white" stroke="white" stroke-width="0.16" stroke-miterlimit="10"/>
</g>
<g id="g38">
<path id="path40" d="M68.4684 11.0038C67.9234 11.5495 67.2481 11.8217 66.4427 11.8217C65.6327 11.8217 64.9574 11.5495 64.4124 11.0038C63.8686 10.4593 63.5978 9.79109 63.5978 9.00021C63.5978 8.20934 63.8686 7.54109 64.4124 6.99659C64.9574 6.45096 65.6327 6.17871 66.4427 6.17871C67.2435 6.17871 67.9188 6.45096 68.4638 7.00109C69.0123 7.55009 69.283 8.21384 69.283 9.00021C69.283 9.79109 69.0123 10.4593 68.4684 11.0038ZM64.939 10.5516C65.3492 10.9555 65.8481 11.158 66.4427 11.158C67.0327 11.158 67.5362 10.9555 67.9418 10.5516C68.3509 10.1477 68.5583 9.62909 68.5583 9.00021C68.5583 8.37134 68.3509 7.85271 67.9418 7.44884C67.5362 7.04496 67.0327 6.84246 66.4427 6.84246C65.8481 6.84246 65.3492 7.04496 64.939 7.44884C64.53 7.85271 64.3226 8.37134 64.3226 9.00021C64.3226 9.62909 64.53 10.1477 64.939 10.5516Z" fill="white" stroke="white" stroke-width="0.16" stroke-miterlimit="10"/>
</g>
<g id="g42">
<path id="path44" d="M70.2822 11.6979V6.30237H71.1464L73.8335 10.4986H73.8646L73.8335 9.46137V6.30237H74.5444V11.6979H73.8024L70.9886 7.29462H70.9574L70.9886 8.33637V11.6979H70.2822Z" fill="white" stroke="white" stroke-width="0.16" stroke-miterlimit="10"/>
</g>
<path id="path46" d="M63.4225 19.5774C61.2575 19.5774 59.4887 21.1862 59.4887 23.4058C59.4887 25.6074 61.2575 27.233 63.4225 27.233C65.5923 27.233 67.361 25.6074 67.361 23.4058C67.361 21.1862 65.5923 19.5774 63.4225 19.5774ZM63.4225 25.7255C62.2346 25.7255 61.2125 24.7682 61.2125 23.4058C61.2125 22.0254 62.2346 21.0849 63.4225 21.0849C64.6105 21.0849 65.6372 22.0254 65.6372 23.4058C65.6372 24.7682 64.6105 25.7255 63.4225 25.7255ZM54.8394 19.5774C52.6697 19.5774 50.9056 21.1862 50.9056 23.4058C50.9056 25.6074 52.6697 27.233 54.8394 27.233C57.0079 27.233 58.7732 25.6074 58.7732 23.4058C58.7732 21.1862 57.0079 19.5774 54.8394 19.5774ZM54.8394 25.7255C53.6502 25.7255 52.6247 24.7682 52.6247 23.4058C52.6247 22.0254 53.6502 21.0849 54.8394 21.0849C56.0273 21.0849 57.0494 22.0254 57.0494 23.4058C57.0494 24.7682 56.0273 25.7255 54.8394 25.7255ZM44.6257 20.7508V22.3775H48.6045C48.4881 23.2865 48.177 23.9548 47.7 24.4205C47.1192 24.983 46.2147 25.6074 44.6257 25.6074C42.1772 25.6074 40.2598 23.678 40.2598 21.2874C40.2598 18.8968 42.1772 16.9674 44.6257 16.9674C45.9497 16.9674 46.913 17.4726 47.6239 18.1273L48.7981 16.9809C47.8037 16.0539 46.4809 15.3418 44.6257 15.3418C41.268 15.3418 38.4462 18.0092 38.4462 21.2874C38.4462 24.5657 41.268 27.233 44.6257 27.233C46.4405 27.233 47.8037 26.6525 48.8753 25.5635C49.9734 24.4914 50.3156 22.9839 50.3156 21.7667C50.3156 21.3887 50.2833 21.041 50.2257 20.7508H44.6257ZM86.3905 22.0119C86.0668 21.1558 85.0677 19.5774 83.0329 19.5774C81.0164 19.5774 79.3376 21.1288 79.3376 23.4058C79.3376 25.55 80.9991 27.233 83.2264 27.233C85.0274 27.233 86.0668 26.1609 86.4942 25.5365L85.1576 24.6669C84.7117 25.3037 84.1045 25.7255 83.2264 25.7255C82.3542 25.7255 81.7285 25.3352 81.3275 24.5657L86.5714 22.4473L86.3905 22.0119ZM81.0441 23.2865C80.9991 21.8105 82.2182 21.0545 83.0916 21.0545C83.7761 21.0545 84.3568 21.3887 84.5504 21.8668L81.0441 23.2865ZM76.7818 27.0002H78.5056V15.7502H76.7818V27.0002ZM73.9588 20.4302H73.9012C73.514 19.9824 72.7754 19.5774 71.8398 19.5774C69.8764 19.5774 68.0811 21.2604 68.0811 23.4182C68.0811 25.5635 69.8764 27.233 71.8398 27.233C72.7754 27.233 73.514 26.8247 73.9012 26.3634H73.9588V26.9124C73.9588 28.376 73.158 29.1624 71.8663 29.1624C70.8131 29.1624 70.1598 28.4199 69.8902 27.7955L68.3911 28.4064C68.8232 29.4212 69.9674 30.6699 71.8663 30.6699C73.8874 30.6699 75.5927 29.5089 75.5927 26.684V19.8103H73.9588V20.4302ZM71.9873 25.7255C70.7993 25.7255 69.8049 24.7547 69.8049 23.4182C69.8049 22.0693 70.7993 21.0849 71.9873 21.0849C73.158 21.0849 74.081 22.0693 74.081 23.4182C74.081 24.7547 73.158 25.7255 71.9873 25.7255ZM94.461 15.7502H90.3382V27.0002H92.0574V22.7375H94.461C96.3703 22.7375 98.2427 21.3887 98.2427 19.2433C98.2427 17.099 96.3657 15.7502 94.461 15.7502ZM94.5059 21.1727H92.0574V17.3151H94.5059C95.7895 17.3151 96.5224 18.3557 96.5224 19.2433C96.5224 20.114 95.7895 21.1727 94.5059 21.1727ZM105.133 19.556C103.891 19.556 102.599 20.0915 102.068 21.2784L103.594 21.9028C103.922 21.2784 104.526 21.0759 105.164 21.0759C106.056 21.0759 106.961 21.599 106.975 22.5227V22.6408C106.663 22.4653 105.997 22.2054 105.178 22.2054C103.535 22.2054 101.861 23.0885 101.861 24.7367C101.861 26.2442 103.207 27.215 104.72 27.215C105.876 27.215 106.515 26.7054 106.916 26.1125H106.975V26.9822H108.635V22.6667C108.635 20.6721 107.109 19.556 105.133 19.556ZM104.926 25.721C104.363 25.721 103.58 25.4488 103.58 24.7682C103.58 23.8974 104.557 23.5633 105.403 23.5633C106.16 23.5633 106.515 23.7264 106.975 23.9413C106.84 24.983 105.921 25.721 104.926 25.721ZM114.684 19.8024L112.708 24.6793H112.649L110.606 19.8024H108.752L111.822 26.6177L110.071 30.41H111.867L116.597 19.8024H114.684ZM99.1875 27.0002H100.911V15.7502H99.1875V27.0002Z" fill="white"/>
<g id="g48">
<path id="path64" d="M10.2341 6.78502C9.96335 7.06177 9.80664 7.49264 9.80664 8.05064V27.9541C9.80664 28.5121 9.96335 28.943 10.2341 29.2198L10.301 29.2805L21.7245 18.1318V17.8685L10.301 6.71977L10.2341 6.78502Z" fill="url(#paint0_linear_279_83)"/>
</g>
<g id="g66">
<path id="path78" d="M25.5282 21.8499L21.7246 18.1317V17.8685L25.5328 14.1504L25.6181 14.1987L30.128 16.7041C31.4151 17.4151 31.4151 18.5851 30.128 19.3006L25.6181 21.8015L25.5282 21.8499Z" fill="url(#paint1_linear_279_83)"/>
</g>
<g id="g80">
<path id="path88" d="M25.6184 21.8016L21.725 18.0002L10.2346 29.2198C10.6621 29.6586 11.3592 29.7115 12.152 29.2727L25.6184 21.8016Z" fill="url(#paint2_linear_279_83)"/>
</g>
<g id="g90">
<path id="path104" d="M25.6184 14.1987L12.152 6.72763C11.3592 6.29338 10.6621 6.34625 10.2346 6.785L21.725 18.0001L25.6184 14.1987Z" fill="url(#paint3_linear_279_83)"/>
</g>
</g>
<defs>
<linearGradient id="paint0_linear_279_83" x1="20.7102" y1="28.1614" x2="5.61036" y2="12.6957" gradientUnits="userSpaceOnUse">
<stop stop-color="#00A0FF"/>
<stop offset="0.0066" stop-color="#00A1FF"/>
<stop offset="0.2601" stop-color="#00BEFF"/>
<stop offset="0.5122" stop-color="#00D2FF"/>
<stop offset="0.7604" stop-color="#00DFFF"/>
<stop offset="1" stop-color="#00E3FF"/>
</linearGradient>
<linearGradient id="paint1_linear_279_83" x1="31.804" y1="17.9988" x2="9.49913" y2="17.9988" gradientUnits="userSpaceOnUse">
<stop stop-color="#FFE000"/>
<stop offset="0.4087" stop-color="#FFBD00"/>
<stop offset="0.7754" stop-color="#FFA500"/>
<stop offset="1" stop-color="#FF9C00"/>
</linearGradient>
<linearGradient id="paint2_linear_279_83" x1="23.5013" y1="15.9337" x2="3.02468" y2="-5.03904" gradientUnits="userSpaceOnUse">
<stop stop-color="#FF3A44"/>
<stop offset="1" stop-color="#C31162"/>
</linearGradient>
<linearGradient id="paint3_linear_279_83" x1="7.34226" y1="35.8415" x2="16.486" y2="26.4763" gradientUnits="userSpaceOnUse">
<stop stop-color="#32A071"/>
<stop offset="0.0685" stop-color="#2DA771"/>
<stop offset="0.4762" stop-color="#15CF74"/>
<stop offset="0.8009" stop-color="#06E775"/>
<stop offset="1" stop-color="#00F076"/>
</linearGradient>
</defs>
</svg>
