<svg width="21" height="20" viewBox="0 0 21 20" fill="none" xmlns="http://www.w3.org/2000/svg">
<g id="ico_social_tiktok">
<path id="Vector" d="M17.3858 8.47538C17.255 8.4879 17.1236 8.49486 16.9928 8.49556C16.2836 8.49555 15.5855 8.31894 14.9616 7.98167C14.3378 7.64441 13.8077 7.1571 13.4192 6.56373V13.1363C13.4192 14.0977 13.1341 15.0376 12.6 15.837C12.0658 16.6364 11.3066 17.2595 10.4183 17.6274C9.53004 17.9954 8.55261 18.0916 7.60963 17.9041C6.66664 17.7165 5.80046 17.2535 5.1206 16.5737C4.44075 15.8938 3.97776 15.0276 3.79019 14.0846C3.60261 13.1416 3.69888 12.1642 4.06682 11.2759C4.43475 10.3877 5.05783 9.62845 5.85725 9.0943C6.65667 8.56014 7.59654 8.27504 8.558 8.27504C8.65956 8.27504 8.75835 8.28408 8.85852 8.29103V10.6862C8.75903 10.6702 8.65868 10.6602 8.558 10.6563C7.89998 10.6563 7.26892 10.9176 6.80364 11.3829C6.33835 11.8482 6.07696 12.4793 6.07696 13.1373C6.07696 13.7953 6.33835 14.4264 6.80364 14.8917C7.26892 15.3569 7.89998 15.6183 8.558 15.6183C9.22313 15.6288 9.86587 15.3781 10.3482 14.92C10.8306 14.462 11.1142 13.833 11.1382 13.1683L11.1625 1.99817H13.4554C13.56 2.99392 14.0113 3.92121 14.7304 4.61784C15.4496 5.31447 16.3907 5.73609 17.3893 5.80895V8.47538" fill="white"/>
</g>
</svg>
