<svg width="21" height="20" viewBox="0 0 21 20" fill="none" xmlns="http://www.w3.org/2000/svg">
<g id="ico_social_instagram">
<path id="Vector" d="M13.8276 5.79524C13.8276 5.54636 13.9265 5.30766 14.1025 5.13167C14.2785 4.95568 14.5172 4.85681 14.766 4.85681C15.015 4.85681 15.2536 4.95568 15.4296 5.13167C15.6056 5.30766 15.7045 5.54636 15.7045 5.79524C15.7045 6.04404 15.6056 6.28264 15.4298 6.45857C15.2538 6.6345 15.0152 6.73333 14.7664 6.73333C14.5176 6.73333 14.279 6.6345 14.1031 6.45857C13.9272 6.28264 13.8283 6.04404 13.8283 5.79524H13.8276Z" fill="white"/>
<path id="Vector_2" d="M10.5957 12.5239C9.92645 12.5232 9.28485 12.2571 8.81161 11.784C8.33835 11.3108 8.07205 10.6693 8.07113 10.0001C8.07187 9.33078 8.33808 8.68911 8.81137 8.21582C9.28465 7.74254 9.92632 7.47633 10.5957 7.47559C11.987 7.47559 13.1195 8.60811 13.1195 10.0001C13.1195 11.3914 11.987 12.5239 10.5957 12.5239ZM10.5957 6.05994C9.55085 6.06086 8.54914 6.47626 7.81031 7.21496C7.07147 7.95367 6.65589 8.95531 6.65479 10.0001C6.65589 11.0449 7.07147 12.0466 7.81031 12.7852C8.54914 13.524 9.55085 13.9394 10.5957 13.9403C11.6403 13.9392 12.6419 13.5237 13.3806 12.785C14.1193 12.0463 14.5347 11.0448 14.5359 10.0001C14.5347 8.95544 14.1193 7.9539 13.3806 7.21521C12.6419 6.47652 11.6403 6.06104 10.5957 6.05994Z" fill="white"/>
<path id="Vector_3" d="M13.7235 3.50552C14.5986 3.50644 15.4375 3.8544 16.0563 4.47309C16.6751 5.09177 17.0233 5.93064 17.0244 6.80569V13.1939C17.0235 14.0691 16.6754 14.9081 16.0566 15.5269C15.4377 16.1457 14.5987 16.4938 13.7235 16.4947H7.33605C6.46089 16.4938 5.62183 16.1457 5.003 15.5269C4.38417 14.9081 4.0361 14.0691 4.03518 13.1939V6.80569C4.03628 5.93064 4.38443 5.09177 5.00324 4.47309C5.62205 3.8544 6.46101 3.50644 7.33605 3.50552H13.7235ZM18.5298 13.1939V6.80569C18.5283 5.5315 18.0215 4.30994 17.1204 3.40902C16.2193 2.5081 14.9977 2.00141 13.7235 2.00012H7.33605C6.06187 2.00141 4.84023 2.5081 3.93918 3.40902C3.03813 4.30994 2.53126 5.5315 2.52979 6.80569V13.1939C2.53107 14.4682 3.03786 15.6899 3.93893 16.591C4.84 17.4921 6.06175 17.9989 7.33605 18.0001H13.7235C14.9979 17.9989 16.2196 17.4921 17.1207 16.591C18.0217 15.6899 18.5285 14.4682 18.5298 13.1939Z" fill="white"/>
</g>
</svg>
