<svg width="18" height="18" viewBox="0 0 18 18" fill="#DB0F3C" xmlns="http://www.w3.org/2000/svg">
<g id="icon">
<path id="Vector" d="M7.16247 13.1812C7.06247 13.1812 6.96872 13.1655 6.88122 13.134C6.79372 13.103 6.71247 13.05 6.63747 12.975L3.41247 9.74999C3.27497 9.61249 3.20922 9.43424 3.21522 9.21524C3.22172 8.99674 3.29372 8.81874 3.43122 8.68124C3.56872 8.54374 3.74372 8.47499 3.95622 8.47499C4.16872 8.47499 4.34372 8.54374 4.48122 8.68124L7.16247 11.3625L13.5187 5.00624C13.6562 4.86874 13.8345 4.79999 14.0535 4.79999C14.272 4.79999 14.45 4.86874 14.5875 5.00624C14.725 5.14374 14.7937 5.32174 14.7937 5.54024C14.7937 5.75924 14.725 5.93749 14.5875 6.07499L7.68747 12.975C7.61247 13.05 7.53122 13.103 7.44372 13.134C7.35622 13.1655 7.26247 13.1812 7.16247 13.1812Z" fill="white"/>
</g>
</svg>
