<svg width="21" height="20" viewBox="0 0 21 20" fill="none" xmlns="http://www.w3.org/2000/svg">
<g id="ico_social_linkedin">
<path id="Vector" d="M17.3469 2.00012H3.7117C3.05907 2.00012 2.52979 2.51353 2.52979 3.14629V16.8543C2.52979 17.4867 3.05907 18.0001 3.7117 18.0001H17.3469C18.0005 18.0001 18.5298 17.4864 18.5298 16.8543V3.14629C18.5298 2.51321 18.0002 2.00012 17.3469 2.00012ZM7.37948 15.3941H4.96289V8.16941H7.37948V15.3941ZM6.17135 7.18248H6.15516C5.34455 7.18248 4.82013 6.62757 4.82013 5.93434C4.82013 5.22566 5.36074 4.6862 6.18721 4.6862C7.01399 4.6862 7.52257 5.22566 7.53875 5.93434C7.53875 6.62757 7.01367 7.18248 6.17135 7.18248ZM16.0938 15.3941H13.6772V11.5281C13.6772 10.5573 13.3276 9.89459 12.4532 9.89459C11.7857 9.89459 11.3881 10.3415 11.213 10.7731C11.1493 10.9272 11.1337 11.1427 11.1337 11.3589V15.3939H8.7171C8.7171 15.3939 8.74883 8.84626 8.7171 8.16909H11.1337V9.19172C11.4549 8.69952 12.0291 7.9986 13.3121 7.9986C14.9019 7.9986 16.0941 9.03152 16.0941 11.2509V15.3941H16.0938Z" fill="white"/>
</g>
</svg>
