<svg width="125" height="36" viewBox="0 0 125 36" fill="none" xmlns="http://www.w3.org/2000/svg">
<g id="appstore">
<g id="Group">
<path id="Vector" d="M123.923 31.8486C123.923 33.7671 122.337 35.3211 120.375 35.3211H4.24585C2.28459 35.3211 0.692627 33.7671 0.692627 31.8486V4.15659C0.692627 2.23901 2.28459 0.679565 4.24585 0.679565H120.374C122.337 0.679565 123.922 2.23901 123.922 4.15659L123.923 31.8486Z" fill="black"/>
<path id="path16" d="M120 0.721247C122.137 0.721247 123.876 2.41662 123.876 4.50012V31.5001C123.876 33.5836 122.137 35.279 120 35.279H4.61538C2.47846 35.279 0.739615 33.5836 0.739615 31.5001V4.50012C0.739615 2.41662 2.47846 0.721247 4.61538 0.721247H120ZM120 0.000123973H4.61538C2.07808 0.000123973 0 2.02625 0 4.50012V31.5001C0 33.974 2.07808 36.0001 4.61538 36.0001H120C122.537 36.0001 124.615 33.974 124.615 31.5001V4.50012C124.615 2.02625 122.537 0.000123973 120 0.000123973Z" fill="#A6A6A6"/>
<g id="Group_2">
<g id="Group_3">
<g id="Vector_2">
<path d="M27.8104 17.8055C27.7836 14.9048 30.2464 13.4936 30.359 13.4279C28.9643 11.4452 26.8024 11.1743 26.0427 11.1527C24.227 10.9664 22.4658 12.212 21.5409 12.212C20.5975 12.212 19.1732 11.1707 17.6381 11.2013C15.6627 11.231 13.8147 12.3461 12.8012 14.0777C10.7095 17.6084 12.2695 22.7969 14.2735 25.6508C15.2759 27.0485 16.4473 28.6091 17.9806 28.5542C19.4806 28.4939 20.0409 27.6218 21.851 27.6218C23.6446 27.6218 24.1707 28.5542 25.7344 28.5191C27.3443 28.4939 28.3578 27.1151 29.3252 25.7048C30.4836 24.1028 30.9489 22.5251 30.9673 22.4441C30.9295 22.4315 27.8409 21.2822 27.8104 17.8055Z" fill="white"/>
<path d="M24.8566 9.27531C25.6633 8.29161 26.2153 6.95331 26.0621 5.59521C24.8944 5.64561 23.4341 6.38271 22.5932 7.34481C21.8492 8.19261 21.1846 9.58221 21.3563 10.889C22.6679 10.9844 24.0147 10.2437 24.8566 9.27531Z" fill="white"/>
</g>
</g>
</g>
<g id="Group_4">
<path id="Vector_3" d="M49.5187 28.3537H47.4224L46.2741 24.8356H42.2827L41.1889 28.3537H39.1479L43.1024 16.3765H45.5449L49.5187 28.3537ZM45.9279 23.3596L44.8895 20.2321C44.7796 19.9126 44.5738 19.1602 44.2701 17.9758H44.2332C44.1123 18.4852 43.9175 19.2376 43.6498 20.2321L42.6298 23.3596H45.9279Z" fill="white"/>
<path id="Vector_4" d="M59.6886 23.9292C59.6886 25.398 59.2815 26.559 58.4674 27.4113C57.7381 28.17 56.8326 28.5489 55.7517 28.5489C54.5849 28.5489 53.7468 28.1403 53.2363 27.3231H53.1994V31.8726H51.2314V22.5603C51.2314 21.6369 51.2064 20.6892 51.1584 19.7172H52.8892L52.9991 21.0861H53.036C53.6923 20.0547 54.6883 19.5399 56.0249 19.5399C57.0698 19.5399 57.9421 19.9422 58.64 20.7477C59.3397 21.5541 59.6886 22.6143 59.6886 23.9292ZM57.6837 23.9994C57.6837 23.1588 57.4898 22.4658 57.1003 21.9204C56.6748 21.3516 56.1034 21.0672 55.3871 21.0672C54.9015 21.0672 54.4603 21.2256 54.0661 21.5379C53.6711 21.8529 53.4126 22.2642 53.2917 22.7736C53.2308 23.0112 53.2003 23.2056 53.2003 23.3586V24.7986C53.2003 25.4268 53.3978 25.9569 53.7929 26.3898C54.188 26.8227 54.7012 27.0387 55.3326 27.0387C56.0738 27.0387 56.6508 26.7597 57.0634 26.2035C57.4769 25.6464 57.6837 24.912 57.6837 23.9994Z" fill="white"/>
<path id="Vector_5" d="M69.8759 23.9292C69.8759 25.398 69.4688 26.559 68.6538 27.4113C67.9255 28.17 67.0199 28.5489 65.939 28.5489C64.7722 28.5489 63.9341 28.1403 63.4245 27.3231H63.3876V31.8726H61.4196V22.5603C61.4196 21.6369 61.3947 20.6892 61.3467 19.7172H63.0774L63.1873 21.0861H63.2242C63.8796 20.0547 64.8756 19.5399 66.2131 19.5399C67.2571 19.5399 68.1295 19.9422 68.8291 20.7477C69.5261 21.5541 69.8759 22.6143 69.8759 23.9292ZM67.871 23.9994C67.871 23.1588 67.6762 22.4658 67.2867 21.9204C66.8611 21.3516 66.2916 21.0672 65.5744 21.0672C65.0879 21.0672 64.6476 21.2256 64.2525 21.5379C63.8575 21.8529 63.5999 22.2642 63.479 22.7736C63.419 23.0112 63.3876 23.2056 63.3876 23.3586V24.7986C63.3876 25.4268 63.5851 25.9569 63.9784 26.3898C64.3734 26.8218 64.8867 27.0387 65.5199 27.0387C66.2611 27.0387 66.8381 26.7597 67.2507 26.2035C67.6642 25.6464 67.871 24.912 67.871 23.9994Z" fill="white"/>
<path id="Vector_6" d="M81.2677 24.995C81.2677 26.0138 80.9049 26.8427 80.1766 27.4826C79.3763 28.1819 78.2621 28.5311 76.8304 28.5311C75.5086 28.5311 74.4489 28.2827 73.6467 27.785L74.1027 26.1857C74.9667 26.6951 75.9147 26.9507 76.9477 26.9507C77.6889 26.9507 78.2658 26.7869 78.6803 26.4611C79.0929 26.1353 79.2987 25.6979 79.2987 25.1525C79.2987 24.6665 79.1289 24.257 78.7883 23.9249C78.4495 23.5928 77.8837 23.2841 77.0935 22.9988C74.9427 22.2167 73.8683 21.071 73.8683 19.5644C73.8683 18.5798 74.2449 17.7725 74.999 17.1443C75.7504 16.5152 76.7529 16.201 78.0064 16.201C79.1243 16.201 80.0529 16.3909 80.7941 16.7698L80.3021 18.3341C79.6098 17.9669 78.827 17.7833 77.951 17.7833C77.2587 17.7833 76.7178 17.9498 76.3301 18.281C76.0024 18.5771 75.8381 18.938 75.8381 19.3655C75.8381 19.8389 76.0255 20.2304 76.4021 20.5382C76.7298 20.8226 77.3252 21.1304 78.1892 21.4625C79.2461 21.8774 80.0224 22.3625 80.5218 22.9187C81.0193 23.4731 81.2677 24.167 81.2677 24.995Z" fill="white"/>
<path id="Vector_7" d="M87.774 21.1572H85.6047V25.3503C85.6047 26.4168 85.9869 26.9496 86.7531 26.9496C87.1047 26.9496 87.3964 26.9199 87.6272 26.8605L87.6817 28.3176C87.294 28.4589 86.7835 28.53 86.1512 28.53C85.374 28.53 84.7666 28.2987 84.3281 27.837C83.8915 27.3744 83.6718 26.5986 83.6718 25.5087V21.1554H82.3795V19.7154H83.6718V18.1341L85.6047 17.5653V19.7154H87.774V21.1572Z" fill="white"/>
<path id="Vector_8" d="M97.5617 23.9644C97.5617 25.2919 97.1722 26.3818 96.395 27.2341C95.5799 28.1116 94.4981 28.549 93.1494 28.549C91.8497 28.549 90.815 28.1287 90.0433 27.2881C89.2716 26.4475 88.8857 25.3864 88.8857 24.1075C88.8857 22.7692 89.2827 21.673 90.0793 20.8207C90.874 19.9675 91.9467 19.5409 93.2953 19.5409C94.595 19.5409 95.6408 19.9612 96.43 20.8027C97.1851 21.619 97.5617 22.6729 97.5617 23.9644ZM95.5199 24.0265C95.5199 23.23 95.3454 22.5469 94.9919 21.9772C94.5793 21.2878 93.9894 20.944 93.2251 20.944C92.434 20.944 91.8331 21.2887 91.4205 21.9772C91.067 22.5478 90.8925 23.2417 90.8925 24.0625C90.8925 24.859 91.067 25.5421 91.4205 26.1109C91.8461 26.8003 92.4405 27.1441 93.2076 27.1441C93.959 27.1441 94.5488 26.7931 94.9744 26.0929C95.3371 25.5124 95.5199 24.8221 95.5199 24.0265Z" fill="white"/>
<path id="Vector_9" d="M103.958 21.4047C103.764 21.3696 103.556 21.3516 103.338 21.3516C102.646 21.3516 102.11 21.6063 101.734 22.1166C101.406 22.5666 101.242 23.1354 101.242 23.8221V28.3536H99.2747L99.2932 22.437C99.2932 21.4416 99.2683 20.5353 99.2194 19.7181H100.934L101.006 21.3705H101.06C101.268 20.8026 101.595 20.3454 102.044 20.0025C102.482 19.6938 102.956 19.5399 103.466 19.5399C103.648 19.5399 103.813 19.5525 103.958 19.575V21.4047Z" fill="white"/>
<path id="Vector_10" d="M112.76 23.6269C112.76 23.9707 112.737 24.2605 112.688 24.4972H106.784C106.807 25.3504 107.092 26.0029 107.64 26.4529C108.138 26.8552 108.781 27.0568 109.571 27.0568C110.446 27.0568 111.243 26.9209 111.96 26.6482L112.269 27.9802C111.43 28.3366 110.441 28.5139 109.299 28.5139C107.926 28.5139 106.847 28.1197 106.063 27.3322C105.28 26.5447 104.888 25.4872 104.888 24.1606C104.888 22.8583 105.252 21.7738 105.982 20.9089C106.747 19.9855 107.78 19.5238 109.079 19.5238C110.356 19.5238 111.322 19.9855 111.979 20.9089C112.498 21.6424 112.76 22.5496 112.76 23.6269ZM110.883 23.1292C110.896 22.5604 110.768 22.069 110.501 21.6541C110.16 21.1204 109.637 20.854 108.933 20.854C108.289 20.854 107.766 21.1141 107.366 21.6361C107.038 22.051 106.844 22.5487 106.784 23.1283H110.883V23.1292Z" fill="white"/>
</g>
<g id="Group_5">
<g id="Group_6">
<path id="Vector_11" d="M45.2758 9.0082C45.2758 10.0675 44.95 10.8649 44.2992 11.4004C43.6964 11.8945 42.8398 12.142 41.7303 12.142C41.1801 12.142 40.7093 12.1186 40.3152 12.0718V6.2839C40.8293 6.2029 41.3832 6.1615 41.9813 6.1615C43.0383 6.1615 43.8349 6.3856 44.3721 6.8338C44.974 7.3405 45.2758 8.065 45.2758 9.0082ZM44.2558 9.0343C44.2558 8.3476 44.0693 7.8211 43.6964 7.4539C43.3235 7.0876 42.7789 6.904 42.0617 6.904C41.757 6.904 41.4976 6.9238 41.2826 6.9652V11.3653C41.4016 11.3833 41.6195 11.3914 41.9361 11.3914C42.6764 11.3914 43.2478 11.1907 43.6503 10.7893C44.0527 10.3879 44.2558 9.8029 44.2558 9.0343Z" fill="white"/>
<path id="Vector_12" d="M50.6837 9.93322C50.6837 10.5857 50.4926 11.1203 50.1105 11.5397C49.7099 11.9708 49.1791 12.1859 48.5163 12.1859C47.8776 12.1859 47.369 11.9798 46.9896 11.5658C46.6111 11.1527 46.4219 10.6316 46.4219 10.0034C46.4219 9.34642 46.6166 8.80732 47.008 8.38882C47.3994 7.97032 47.9256 7.76062 48.5883 7.76062C49.2271 7.76062 49.7403 7.96672 50.129 8.37982C50.4982 8.78122 50.6837 9.29962 50.6837 9.93322ZM49.6803 9.96382C49.6803 9.57232 49.5936 9.23662 49.421 8.95672C49.2179 8.61832 48.929 8.44912 48.5533 8.44912C48.1646 8.44912 47.8693 8.61832 47.6662 8.95672C47.4926 9.23662 47.4068 9.57772 47.4068 9.98092C47.4068 10.3724 47.4936 10.7081 47.6662 10.988C47.8757 11.3264 48.1674 11.4956 48.544 11.4956C48.9133 11.4956 49.2031 11.3237 49.4117 10.979C49.5908 10.6937 49.6803 10.3553 49.6803 9.96382Z" fill="white"/>
<path id="Vector_13" d="M57.9366 7.84729L56.575 12.0899H55.6889L55.1249 10.2476C54.9818 9.78769 54.8655 9.33049 54.775 8.87689H54.7575C54.6735 9.34309 54.5572 9.79939 54.4076 10.2476L53.8086 12.0899H52.9123L51.632 7.84729H52.6261L53.1181 9.86419C53.2372 10.3412 53.335 10.7957 53.4135 11.2259H53.431C53.503 10.8713 53.6221 10.4195 53.7901 9.87319L54.4076 7.84819H55.196L55.7876 9.82999C55.9307 10.3133 56.047 10.7786 56.1366 11.2268H56.1633C56.2289 10.7903 56.3276 10.325 56.4587 9.82999L56.9867 7.84819H57.9366V7.84729Z" fill="white"/>
<path id="Vector_14" d="M62.9509 12.0896H61.9835V9.65964C61.9835 8.91083 61.6918 8.53643 61.1066 8.53643C60.8195 8.53643 60.5878 8.63904 60.4078 8.84514C60.2296 9.05124 60.1392 9.29423 60.1392 9.57234V12.0887H59.1718V9.05934C59.1718 8.68673 59.1598 8.28263 59.1367 7.84523H59.9869L60.0321 8.50854H60.0589C60.1715 8.30244 60.3395 8.13234 60.5601 7.99643C60.8223 7.83803 61.1158 7.75793 61.437 7.75793C61.8432 7.75793 62.181 7.88573 62.4496 8.14223C62.7838 8.45633 62.9509 8.92524 62.9509 9.54804V12.0896Z" fill="white"/>
<path id="Vector_15" d="M65.6192 12.0898H64.6527V5.90051H65.6192V12.0898Z" fill="white"/>
<path id="Vector_16" d="M71.3146 9.93322C71.3146 10.5857 71.1235 11.1203 70.7414 11.5397C70.3407 11.9708 69.809 12.1859 69.1472 12.1859C68.5075 12.1859 67.9989 11.9798 67.6204 11.5658C67.242 11.1527 67.0527 10.6316 67.0527 10.0034C67.0527 9.34642 67.2475 8.80732 67.6389 8.38882C68.0303 7.97032 68.5564 7.76062 69.2183 7.76062C69.858 7.76062 70.3703 7.96672 70.7598 8.37982C71.129 8.78122 71.3146 9.29962 71.3146 9.93322ZM70.3103 9.96382C70.3103 9.57232 70.2235 9.23662 70.0509 8.95672C69.8487 8.61832 69.5589 8.44912 69.1841 8.44912C68.7946 8.44912 68.4992 8.61832 68.297 8.95672C68.1235 9.23662 68.0377 9.57772 68.0377 9.98092C68.0377 10.3724 68.1244 10.7081 68.297 10.988C68.5066 11.3264 68.7983 11.4956 69.1749 11.4956C69.5441 11.4956 69.833 11.3237 70.0417 10.979C70.2217 10.6937 70.3103 10.3553 70.3103 9.96382Z" fill="white"/>
<path id="Vector_17" d="M75.9956 12.0896H75.127L75.055 11.6009H75.0283C74.731 11.9906 74.3073 12.1859 73.7572 12.1859C73.3464 12.1859 73.0141 12.0572 72.764 11.8016C72.5369 11.5694 72.4233 11.2805 72.4233 10.9376C72.4233 10.4192 72.6449 10.0241 73.0907 9.75052C73.5356 9.47692 74.1615 9.34282 74.9673 9.34912V9.26992C74.9673 8.71102 74.6664 8.43202 74.0636 8.43202C73.6344 8.43202 73.256 8.53732 72.9292 8.74612L72.7326 8.12692C73.1369 7.88302 73.6363 7.76062 74.2252 7.76062C75.3624 7.76062 75.9329 8.34562 75.9329 9.51562V11.078C75.9329 11.5019 75.9541 11.8394 75.9956 12.0896ZM74.9913 10.6316V9.97732C73.9243 9.95932 73.3907 10.2446 73.3907 10.8323C73.3907 11.0537 73.4516 11.2193 73.5763 11.33C73.7009 11.4407 73.8596 11.4956 74.0489 11.4956C74.2612 11.4956 74.4596 11.4299 74.6406 11.2994C74.8224 11.168 74.9341 11.0015 74.9756 10.7972C74.9858 10.7513 74.9913 10.6955 74.9913 10.6316Z" fill="white"/>
<path id="Vector_18" d="M81.4932 12.0898H80.6347L80.5895 11.4085H80.5627C80.2886 11.9269 79.8215 12.1861 79.1652 12.1861C78.6409 12.1861 78.2043 11.9854 77.8581 11.584C77.512 11.1826 77.3394 10.6615 77.3394 10.0216C77.3394 9.33491 77.5267 8.77871 77.9034 8.35391C78.268 7.95791 78.7147 7.75991 79.2464 7.75991C79.8307 7.75991 80.2397 7.95161 80.4723 8.33591H80.4907V5.90051H81.459V10.9468C81.459 11.3599 81.4701 11.7406 81.4932 12.0898ZM80.4907 10.3006V9.59321C80.4907 9.47081 80.4815 9.37181 80.464 9.29621C80.4095 9.06941 80.2923 8.87861 80.1141 8.72471C79.9341 8.57081 79.7172 8.49341 79.467 8.49341C79.1061 8.49341 78.8237 8.63291 78.616 8.91281C78.4101 9.19271 78.3058 9.55001 78.3058 9.98651C78.3058 10.4059 78.4046 10.7461 78.603 11.008C78.8126 11.287 79.095 11.4265 79.4486 11.4265C79.7661 11.4265 80.02 11.3104 80.2129 11.0773C80.3994 10.8622 80.4907 10.603 80.4907 10.3006Z" fill="white"/>
<path id="Vector_19" d="M89.7668 9.93322C89.7668 10.5857 89.5758 11.1203 89.1936 11.5397C88.793 11.9708 88.2632 12.1859 87.5995 12.1859C86.9616 12.1859 86.453 11.9798 86.0727 11.5658C85.6942 11.1527 85.505 10.6316 85.505 10.0034C85.505 9.34642 85.6998 8.80732 86.0912 8.38882C86.4825 7.97032 87.0087 7.76062 87.6724 7.76062C88.3102 7.76062 88.8244 7.96672 89.2121 8.37982C89.5813 8.78122 89.7668 9.29962 89.7668 9.93322ZM88.7644 9.96382C88.7644 9.57232 88.6776 9.23662 88.505 8.95672C88.301 8.61832 88.013 8.44912 87.6364 8.44912C87.2487 8.44912 86.9533 8.61832 86.7493 8.95672C86.5758 9.23662 86.4899 9.57772 86.4899 9.98092C86.4899 10.3724 86.5767 10.7081 86.7493 10.988C86.9588 11.3264 87.2505 11.4956 87.6272 11.4956C87.9964 11.4956 88.2872 11.3237 88.4958 10.979C88.6739 10.6937 88.7644 10.3553 88.7644 9.96382Z" fill="white"/>
<path id="Vector_20" d="M94.9679 12.0896H94.0014V9.65964C94.0014 8.91083 93.7097 8.53643 93.1236 8.53643C92.8365 8.53643 92.6048 8.63904 92.4257 8.84514C92.2467 9.05124 92.1571 9.29423 92.1571 9.57234V12.0887H91.1888V9.05934C91.1888 8.68673 91.1777 8.28263 91.1547 7.84523H92.0039L92.0491 8.50854H92.0759C92.1894 8.30244 92.3574 8.13234 92.5771 7.99643C92.8402 7.83803 93.1328 7.75793 93.455 7.75793C93.8602 7.75793 94.198 7.88573 94.4667 8.14223C94.8017 8.45633 94.9679 8.92524 94.9679 9.54804V12.0896Z" fill="white"/>
<path id="Vector_21" d="M101.478 8.55363H100.413V10.6146C100.413 11.1384 100.602 11.4003 100.977 11.4003C101.151 11.4003 101.295 11.3859 101.408 11.3562L101.433 12.0717C101.242 12.1419 100.991 12.177 100.682 12.177C100.3 12.177 100.002 12.0636 99.7872 11.8368C99.5712 11.61 99.4641 11.2284 99.4641 10.6929V8.55363H98.8281V7.84713H99.4641V7.06953L100.412 6.79053V7.84623H101.477V8.55363H101.478Z" fill="white"/>
<path id="Vector_22" d="M106.6 12.0898H105.631V9.67781C105.631 8.91731 105.34 8.53661 104.755 8.53661C104.307 8.53661 104 8.75711 103.832 9.19811C103.804 9.29081 103.787 9.40421 103.787 9.53741V12.0889H102.821V5.90051H103.787V8.45741H103.806C104.11 7.99211 104.547 7.75991 105.113 7.75991C105.513 7.75991 105.845 7.88771 106.108 8.14421C106.435 8.46371 106.6 8.93891 106.6 9.56711V12.0898Z" fill="white"/>
<path id="Vector_23" d="M111.883 9.76778C111.883 9.93698 111.87 10.0792 111.847 10.1953H108.946C108.959 10.6147 109.097 10.9342 109.366 11.1556C109.611 11.3536 109.928 11.4526 110.316 11.4526C110.745 11.4526 111.136 11.386 111.489 11.2519L111.64 11.9071C111.228 12.0817 110.742 12.169 110.18 12.169C109.506 12.169 108.975 11.9755 108.591 11.5885C108.205 11.2015 108.014 10.6822 108.014 10.0306C108.014 9.39069 108.193 8.85789 108.552 8.43309C108.926 7.97949 109.433 7.75269 110.073 7.75269C110.699 7.75269 111.174 7.97949 111.495 8.43309C111.755 8.79309 111.883 9.23858 111.883 9.76778ZM110.96 9.52388C110.967 9.24398 110.904 9.00279 110.773 8.79939C110.605 8.53749 110.349 8.40609 110.003 8.40609C109.687 8.40609 109.429 8.53389 109.233 8.79039C109.072 8.99469 108.977 9.23858 108.946 9.52388H110.96Z" fill="white"/>
</g>
</g>
</g>
</g>
</svg>
